HIERARCHY
ROOT Hips
{
	OFFSET -0.001795 -0.223333 0.028219
	CHANNELS 6 Xposition Yposition Zposition Zrotation Yrotation Xrotation 
	JOINT LeftUpLeg
	{
		OFFSET 0.069520 -0.091406 -0.006815
		CHANNELS 3 Zrotation Yrotation Xrotation
		JOINT LeftLeg
		{
			OFFSET 0.034277 -0.375199 -0.004496
			CHANNELS 3 Zrotation Yrotation Xrotation
			JOINT LeftFoot
			{
				OFFSET -0.013596 -0.397961 -0.043693
				CHANNELS 3 Zrotation Yrotation Xrotation
				JOINT LeftToe
				{
					OFFSET 0.026358 -0.055791 0.119288
					CHANNELS 3 Zrotation Yrotation Xrotation
					End Site
					{
						OFFSET 0.000000 0.000000 0.000000
					}
				}
			}
		}
	}
	JOINT RightUpLeg
	{
		OFFSET -0.067670 -0.090522 -0.004320
		CHANNELS 3 Zrotation Yrotation Xrotation
		JOINT RightLeg
		{
			OFFSET -0.038290 -0.382569 -0.008850
			CHANNELS 3 Zrotation Yrotation Xrotation
			JOINT RightFoot
			{
				OFFSET 0.015774 -0.398415 -0.042312
				CHANNELS 3 Zrotation Yrotation Xrotation
				JOINT RightToe
				{
					OFFSET -0.025372 -0.048144 0.123348
					CHANNELS 3 Zrotation Yrotation Xrotation
					End Site
					{
						OFFSET 0.000000 0.000000 0.000000
					}
				}
			}
		}
	}
	JOINT Spine
	{
		OFFSET -0.002533 0.108963 -0.026696
		CHANNELS 3 Zrotation Yrotation Xrotation
		JOINT Spine1
		{
			OFFSET 0.005487 0.135180 0.001092
			CHANNELS 3 Zrotation Yrotation Xrotation
			JOINT Spine2
			{
				OFFSET 0.001457 0.052922 0.025425
				CHANNELS 3 Zrotation Yrotation Xrotation
				JOINT Neck
				{
					OFFSET -0.002778 0.213870 -0.042857
					CHANNELS 3 Zrotation Yrotation Xrotation
					JOINT Head
					{
						OFFSET 0.005152 0.064970 0.051349
						CHANNELS 3 Zrotation Yrotation Xrotation
						End Site
						{
							OFFSET 0.000000 0.000000 0.000000
						}
					}
				}
				JOINT LeftShoulder
				{
					OFFSET 0.078845 0.121749 -0.034090
					CHANNELS 3 Zrotation Yrotation Xrotation
					JOINT LeftArm
					{
						OFFSET 0.090977 0.030469 -0.008868
						CHANNELS 3 Zrotation Yrotation Xrotation
						JOINT LeftForeArm
						{
							OFFSET 0.259612 -0.012772 -0.027456
							CHANNELS 3 Zrotation Yrotation Xrotation
							JOINT LeftHand
							{
								OFFSET 0.249234 0.008986 -0.001171
								CHANNELS 3 Zrotation Yrotation Xrotation
								End Site
								{
									OFFSET 0.000000 0.000000 0.000000
								}
							}
						}
					}
				}
				JOINT RightShoulder
				{
					OFFSET -0.081759 0.118833 -0.038615
					CHANNELS 3 Zrotation Yrotation Xrotation
					JOINT RightArm
					{
						OFFSET -0.096012 0.032551 -0.009143
						CHANNELS 3 Zrotation Yrotation Xrotation
						JOINT RightForeArm
						{
							OFFSET -0.253742 -0.013329 -0.021401
							CHANNELS 3 Zrotation Yrotation Xrotation
							JOINT RightHand
							{
								OFFSET -0.255298 0.007772 -0.005559
								CHANNELS 3 Zrotation Yrotation Xrotation
								End Site
								{
									OFFSET 0.000000 0.000000 0.000000
								}
							}
						}
					}
				}
			}
		}
	}
}
MOTION
Frames: 8
Frame Time: 0.050000
-0.008976 0.695160 -0.002905 -2.686206 -0.069684 -18.946009 13.970348 1.518945 -46.848522 -9.030467 3.457329 62.149716 2.059229 4.986914 2.047725 0.000000 0.000000 0.000000 -13.939674 -1.209570 -43.735576 15.036025 -7.942302 61.965522 -7.474455 -18.021391 3.339153 0.000000 0.000000 0.000000 -0.824341 -0.931052 25.613665 0.958980 -0.676002 4.460243 2.318156 2.448718 -5.842519 -0.788002 0.601396 -0.125154 0.000000 0.000000 0.000000 -31.410822 -5.287829 -1.259108 -39.050033 -2.708634 -2.822046 -50.180889 -58.329828 30.558253 0.000000 0.000000 0.000000 31.355030 8.859582 2.931425 38.209409 3.386864 -2.224686 39.282988 62.009339 25.647424 0.000000 0.000000 0.000000 
-0.009012 0.698616 -0.002887 -2.839542 0.370468 -19.111928 13.823132 1.330848 -46.246839 -9.016388 3.259635 61.407487 1.937150 4.794234 2.159871 0.000000 0.000000 0.000000 -13.728187 -1.226191 -43.670616 14.520981 -7.772782 62.346850 -7.363681 -17.867805 4.864954 0.000000 0.000000 0.000000 -0.745817 -0.993741 26.039144 1.466808 -0.979899 4.524932 1.917214 2.858489 -6.422569 -0.597130 0.300917 1.256389 0.000000 0.000000 0.000000 -32.402164 -6.047042 -1.208985 -37.838540 -1.589787 -2.898295 -52.305957 -58.552339 31.904806 0.000000 0.000000 0.000000 32.856575 9.041117 3.345173 36.327417 3.194904 -2.223319 38.966634 61.583382 25.328920 0.000000 0.000000 0.000000 
-0.008943 0.701669 -0.002779 -2.888458 0.391925 -19.042083 14.038101 1.412519 -45.730020 -9.305077 3.418765 60.568007 1.919082 4.772117 2.197621 0.000000 0.000000 0.000000 -13.692393 -1.208407 -43.299512 14.551236 -7.733743 61.738447 -7.338860 -17.827856 5.123700 0.000000 0.000000 0.000000 -0.355406 -1.058855 25.945633 1.205604 -0.879335 5.561323 2.203027 2.796644 -7.558302 -1.459307 0.807625 2.956540 0.000000 0.000000 0.000000 -34.509320 -6.274935 -1.278224 -35.735181 -0.907085 -2.798157 -54.678111 -58.158557 33.261876 0.000000 0.000000 0.000000 34.489777 9.670425 3.677876 34.112210 2.637888 -2.117993 38.663002 60.785588 24.624857 0.000000 0.000000 0.000000 
-0.008897 0.705231 -0.002609 -2.833575 0.507362 -19.313400 13.887258 1.319624 -45.335966 -9.290673 3.355351 60.415571 1.704934 4.691530 3.128034 0.000000 0.000000 0.000000 -13.557572 -1.175461 -42.906345 14.175216 -7.488336 61.729060 -7.196116 -17.587372 5.997455 0.000000 0.000000 0.000000 -0.240311 -1.106597 26.398011 1.339244 -1.034301 6.990403 1.702307 3.214314 -9.136409 -1.430352 0.620061 4.025555 0.000000 0.000000 0.000000 -35.573176 -6.886979 -1.343151 -34.372696 -0.279837 -2.624588 -56.370130 -57.542816 33.816385 0.000000 0.000000 0.000000 35.948968 9.739322 3.944703 32.030258 2.513005 -1.980832 38.607997 60.760323 24.595380 0.000000 0.000000 0.000000 
-0.008942 0.709036 -0.002706 -2.852504 0.214781 -19.604000 13.742669 1.330067 -45.370164 -8.795523 3.105756 61.043656 1.315948 4.582055 4.912655 0.000000 0.000000 0.000000 -13.592842 -1.127205 -42.465070 14.550981 -7.607779 61.336037 -7.027695 -17.336580 7.038949 0.000000 0.000000 0.000000 -0.104386 -1.143990 27.182669 1.444967 -1.124489 7.503851 1.225222 3.677690 -9.395552 -1.263327 0.422711 4.206861 0.000000 0.000000 0.000000 -36.806039 -8.013119 -0.947494 -32.783799 -0.159027 -2.395637 -57.317659 -57.026706 34.052787 0.000000 0.000000 0.000000 37.004760 10.059703 4.443266 30.532148 3.234320 -1.767441 36.083025 60.595411 22.980077 0.000000 0.000000 0.000000 
-0.009219 0.713980 -0.003140 -3.231951 -0.084454 -20.342696 14.200164 1.591132 -45.403881 -8.709048 3.090214 62.182492 1.253559 5.254348 7.263012 0.000000 0.000000 0.000000 -13.279485 -0.970504 -42.078265 14.841521 -7.903823 62.517401 -6.992774 -17.227537 6.499918 0.000000 0.000000 0.000000 0.594886 -1.328613 28.570641 1.249505 -1.063060 8.676457 0.914892 3.815844 -10.755741 -1.019548 0.051031 5.339348 0.000000 0.000000 0.000000 -37.907839 -9.241461 -0.382912 -31.398950 0.311495 -2.231192 -58.252592 -57.523798 34.979108 0.000000 0.000000 0.000000 37.698813 10.985388 5.166050 29.126017 3.331727 -1.584516 34.394106 61.853065 22.447694 0.000000 0.000000 0.000000 
-0.009616 0.718728 -0.003865 -3.445410 -0.540714 -21.328935 15.033414 2.092942 -46.181070 -9.176148 3.642666 65.525988 1.041071 4.808361 7.083305 0.000000 0.000000 0.000000 -13.652176 -1.072687 -42.606753 16.032280 -9.008023 65.271600 -7.199198 -17.487646 4.127961 0.000000 0.000000 0.000000 0.471728 -1.345074 30.080547 1.446515 -1.267569 10.249805 0.721104 4.275040 -12.710459 -0.980590 -0.316423 7.355095 0.000000 0.000000 0.000000 -39.116759 -10.866102 0.360017 -30.177872 1.611266 -2.209098 -60.483892 -57.385828 36.327903 0.000000 0.000000 0.000000 39.118423 11.955411 6.047017 27.044458 3.065447 -1.430814 32.873029 62.822485 21.847808 0.000000 0.000000 0.000000 
-0.010192 0.724129 -0.004488 -3.865969 -0.520227 -22.670537 16.080081 2.589725 -47.101471 -10.130448 4.458414 69.542235 1.507120 4.460336 3.592770 0.000000 0.000000 0.000000 -14.004838 -1.284904 -42.587436 16.811271 -10.073742 68.202744 -7.937779 -18.710882 -2.439340 0.000000 0.000000 0.000000 0.916558 -1.566781 32.363771 1.237845 -1.256666 12.387046 0.628488 4.306617 -16.603806 -1.656623 -0.432320 11.503463 0.000000 0.000000 0.000000 -41.470127 -12.028670 0.681855 -27.967981 2.967849 -1.958443 -62.708842 -56.354494 37.111574 0.000000 0.000000 0.000000 41.401446 12.306420 6.225167 24.680813 2.512830 -1.134337 31.347527 62.806683 20.720882 0.000000 0.000000 0.000000 
